<?xml version="1.0" encoding="UTF-8"?><svg id="a" xmlns="http://www.w3.org/2000/svg" viewBox="0 0 415 257"><g id="b"><g id="c" transform="translate(-1195.000000, -156.000000)"><g id="d" transform="translate(208.000000, 157.175690)"><g id="e" transform="translate(987.455078, 0.000000)"><path vector-effect="non-scaling-stroke" id="f" d="M392.40649,154.47485l22.17151,1.70764" style="fill:none; stroke:#08212c; stroke-width:1.5px;"/><path vector-effect="non-scaling-stroke" id="g" d="M378.16455,186.93057c3.78372,2.9214,7.56747,5.84279,11.3512,8.76419" style="fill:none; stroke:#08212c; stroke-width:1.5px;"/><path vector-effect="non-scaling-stroke" id="h" d="M347.06348,220.31964c1.61896,2.7579,13.71909,16.90656,13.97168,16.90656" style="fill:none; stroke:#08212c; stroke-width:1.5px;"/><path vector-effect="non-scaling-stroke" id="i" d="M297.41772,233.20667c1.8829,4.79631,3.76578,9.59261,5.64868,14.38892" style="fill:none; stroke:#08212c; stroke-width:1.5px;"/><path vector-effect="non-scaling-stroke" id="j" d="M142.95874,233.82623c-3.66269,15.19829-3.17729,7.74858-1.94275,22.31207" style="fill:none; stroke:#08212c; stroke-width:1.5px;"/><path vector-effect="non-scaling-stroke" id="k" d="M102.36108,231.34406l-5.98938,9.54053" style="fill:none; stroke:#08212c; stroke-width:1.5px;"/><path vector-effect="non-scaling-stroke" id="l" d="M67.26221,221.48401l-26.46106,14.83099" style="fill:none; stroke:#08212c; stroke-width:1.5px;"/><path vector-effect="non-scaling-stroke" id="m" d="M294.19921,30.37358c2.74123-9.73262,5.48245-19.46525,8.2237-29.19789" style="fill:none; stroke:#08212c; stroke-miterlimit:4; stroke-width:1.5px;"/><path vector-effect="non-scaling-stroke" id="n" d="M45.77856,201.59656c-1.94255,.54884-3.88509,1.0977-5.82764,1.64655" style="fill:none; stroke:#08212c; stroke-width:1.5px;"/><path vector-effect="non-scaling-stroke" id="o" d="M39.61121,184.34692L.45508,191.33606" style="fill:none; stroke:#08212c; stroke-width:1.5px;"/><path vector-effect="non-scaling-stroke" id="p" d="M340.01134,37.08127c7.58183-10.87654,15.16367-21.75309,22.7455-32.62963" style="fill:none; stroke:#08212c; stroke-miterlimit:4; stroke-width:1.5px;"/><path vector-effect="non-scaling-stroke" id="q" d="M31.01233,160.85349c-3.02559,.04726-6.05119,.09453-9.07678,.14178" style="fill:none; stroke:#08212c; stroke-width:1.5px;"/><path vector-effect="non-scaling-stroke" id="r" d="M362.70397,47.61331c2.10601-2.17284,4.21199-4.34567,6.318-6.51851" style="fill:none; stroke:#08212c; stroke-miterlimit:4; stroke-width:1.5px;"/><path vector-effect="non-scaling-stroke" id="s" d="M377.84996,56.9179c8.38932-6.48564,16.77865-12.97128,25.16798-19.45692" style="fill:none; stroke:#08212c; stroke-miterlimit:4; stroke-width:1.5px;"/><path vector-effect="non-scaling-stroke" id="t" d="M397.28247,76.09795c1.29963-.74819,2.59926-1.49639,3.89891-2.2446" style="fill:none; stroke:#08212c; stroke-miterlimit:4; stroke-width:1.5px;"/><path vector-effect="non-scaling-stroke" id="u" d="M27.24312,90.42678l-21.93831-3.63352" style="fill:none; stroke:#08212c; stroke-miterlimit:4; stroke-width:1.5px;"/><path vector-effect="non-scaling-stroke" id="v" d="M44.25957,59.33582c-3.51472-3.24006-7.02944-6.48011-10.54415-9.72016" style="fill:none; stroke:#08212c; stroke-miterlimit:4; stroke-width:1.5px;"/><path vector-effect="non-scaling-stroke" id="w" d="M78.15234,28.78444c-1.37244-2.88852-12.19336-18.03792-12.44501-18.05993" style="fill:none; stroke:#08212c; stroke-miterlimit:4; stroke-width:1.5px;"/><path vector-effect="non-scaling-stroke" id="x" d="M128.73237,20.27337c-1.4577-4.94216-2.9154-9.88432-4.37311-14.82648" style="fill:none; stroke:#08212c; stroke-miterlimit:4; stroke-width:1.5px;"/></g></g></g></g></svg>